<svg width="110" height="110" fill="none" xmlns="http://www.w3.org/2000/svg"><g opacity=".7" stroke="#000" stroke-width="4" stroke-linejoin="round"><path d="M50.55 11.642a9.166 9.166 0 0 1 8.9 0l34.444 19.13a4.583 4.583 0 0 1 2.356 4.006v37.744a9.167 9.167 0 0 1-4.716 8.012L59.45 98.363a9.167 9.167 0 0 1-8.9 0l-32.084-17.83a9.167 9.167 0 0 1-4.716-8.006V34.778a4.584 4.584 0 0 1 2.356-4.006l34.448-19.13h-.004Z" stroke-linecap="round"/><path d="M55 55v45.833m-41.25-68.75L55 55 13.75 32.083ZM55 55l41.25-22.917L55 55Z"/><path d="m34.375 43.542 41.25-22.917M27.5 56.503l13.75 7.663" stroke-linecap="round"/></g></svg>