<svg width="50" height="50" fill="none" xmlns="http://www.w3.org/2000/svg"><path d="M29.39 3.281c-1.29-4.375-7.49-4.375-8.78 0l-.313 1.063a4.576 4.576 0 0 1-6.578 2.725l-.969-.532c-4.01-2.18-8.394 2.204-6.21 6.21l.529.972a4.576 4.576 0 0 1-2.725 6.578l-1.063.312c-4.375 1.291-4.375 7.491 0 8.782l1.063.312a4.576 4.576 0 0 1 2.725 6.578l-.532.969c-2.18 4.01 2.204 8.394 6.21 6.21l.972-.529a4.574 4.574 0 0 1 6.578 2.725l.312 1.063c1.291 4.375 7.491 4.375 8.782 0l.312-1.063a4.577 4.577 0 0 1 6.578-2.725l.969.532c4.01 2.18 8.394-2.204 6.21-6.21l-.529-.972a4.574 4.574 0 0 1 2.725-6.578l1.063-.312c4.375-1.291 4.375-7.491 0-8.782l-1.063-.312a4.577 4.577 0 0 1-2.725-6.578l.532-.969c2.18-4.01-2.204-8.394-6.21-6.21l-.972.529a4.575 4.575 0 0 1-6.578-2.725l-.312-1.063ZM25 34.156a9.156 9.156 0 1 1 6.472-15.631A9.153 9.153 0 0 1 25 34.15v.006Z" fill="#fff" fill-opacity=".6"/></svg>